PathFileType	3	(X/Y/Z)	F:\ViconData\AntennenMessung\Messung1\Session1\ID18.trc
DataRate	CameraRate	NumFrames	NumMarkers	Units	OrigDataRate	OrigDataStartFrame	OrigNumFrames
120.0	120.0	4	70	mm	120.0	766	1020	
Frame#	Time	Ashort			Along			Atop			A4			Bshort			Blong			Btop			B4			Cshort			Clong			Ctop			C4			Dshort			Dlong			Dtop			D4			Eshort			Elong			Etop			E4			Fshort			Flong			Ftop			F4			Gshort			Glong			Gtop			G4			Hshort			Hlong			Htop			H4			I1			I2			I3			I4			I5			WandAshort			WandAlong			WandAtop			WandA4			WandA15			WandBshort			WandB4			WandB5			WandBtop			WandBlong			WandCshort			WandClong			WandCtop			WandC4			WandC5			Acenter			Aantenna			Bcenter			Bantenna			Ccenter			Cantenna			Dcenter			Dantenna			Ecenter			Eantenna			Fcenter			Fantenna			Gcenter			Gantenna			Hcenter			Hantenna			Icenter			Iantenna			
		X1	Y1	Z1	X2	Y2	Z2	X3	Y3	Z3	X4	Y4	Z4	X5	Y5	Z5	X6	Y6	Z6	X7	Y7	Z7	X8	Y8	Z8	X9	Y9	Z9	X10	Y10	Z10	X11	Y11	Z11	X12	Y12	Z12	X13	Y13	Z13	X14	Y14	Z14	X15	Y15	Z15	X16	Y16	Z16	X17	Y17	Z17	X18	Y18	Z18	X19	Y19	Z19	X20	Y20	Z20	X21	Y21	Z21	X22	Y22	Z22	X23	Y23	Z23	X24	Y24	Z24	X25	Y25	Z25	X26	Y26	Z26	X27	Y27	Z27	X28	Y28	Z28	X29	Y29	Z29	X30	Y30	Z30	X31	Y31	Z31	X32	Y32	Z32	X33	Y33	Z33	X34	Y34	Z34	X35	Y35	Z35	X36	Y36	Z36	X37	Y37	Z37	X38	Y38	Z38	X39	Y39	Z39	X40	Y40	Z40	X41	Y41	Z41	X42	Y42	Z42	X43	Y43	Z43	X44	Y44	Z44	X45	Y45	Z45	X46	Y46	Z46	X47	Y47	Z47	X48	Y48	Z48	X49	Y49	Z49	X50	Y50	Z50	X51	Y51	Z51	X52	Y52	Z52	X53	Y53	Z53	X54	Y54	Z54	X55	Y55	Z55	X56	Y56	Z56	X57	Y57	Z57	X58	Y58	Z58	X59	Y59	Z59	X60	Y60	Z60	X61	Y61	Z61	X62	Y62	Z62	X63	Y63	Z63	X64	Y64	Z64	X65	Y65	Z65	X66	Y66	Z66	X67	Y67	Z67	X68	Y68	Z68	X69	Y69	Z69	X70	Y70	Z70	
766	6.375	-1038.2043	214.38684	-1644.2726	-1109.4067	204.12773	-1599.3186	-1063.718	173.19739	-1625.7156	-1054.2161	262.17801	-1634.9523	-1353.0076	234.86269	1003.6979	-1281.3408	227.08669	1052.4811	-1322.8844	193.78087	1021.024	-1284.7732	287.8544	1052.7874	813.95667	187.62726	1209.5227	892.20898	178.58224	1179.2424	844.39679	145.59671	1198.2618	860.65527	292.64252	1167.8167	1115.6777	209.56947	-1401.6277	1056.1724	194.00662	-1460.3096	1095.1183	162.436	-1423.9794	1069.804	238.6891	-1425.8062	-1204.5177	1685.9335	-1563.2177	-1129.22	1688.4042	-1606.5461	-1173.1919	1724.4436	-1581.9791	-1134.0688	1580.9722	-1603.9139	-1239.6385	1699.1617	1119.494	-1309.0406	1698.2487	1071.7241	-1270.4261	1736.3032	1096.8809	-1245.0037	1593.6968	1106.1542	988.86133	1664.2483	1162.259	957.48041	1700.3398	1183.8314	922.56165	1662.0044	1214.9152	939.79248	1659.4727	1159.9033	998.9939	1668.4633	-1579.464	1058.8362	1670.1321	-1518.6423	1024.9324	1708.0101	-1551.1244	1059.2125	1672.1719	-1585.5663	-261.3605	164.31819	-221.5793	-346.66861	172.82687	-224.60722	-303.27249	129.18045	-221.8739	-299.63104	169.50397	-191.72517	-297.79993	166.3127	-270.15427																																														-1068.6152	210.0051	-1625.0724	-1073.7582	248.65862	-1624.397	-1321.5697	231.4516	1025.0974	-1320.2174	270.20227	1029.2875	848.0517	183.68628	1196.3293	851.77209	222.45856	1194.3623	1088.7638	202.53049	-1428.1691	1082.6912	240.84619	-1432.1729	-1171.9508	1687.002	-1581.9575	-1170.6588	1648.0233	-1581.9349	-1270.7549	1698.7523	1098.0763	-1271.0962	1659.7736	1099.3173	953.11707	1705.358	1186.8311	972.9729	1733.5306	1168.5812	1026.4525	1669.2289	-1551.5559	1027.98	1630.2612	-1551.9895	-299.35245	168.10753	-222.92778	-295.44629	206.8972	-223.97795
767	6.3833333	-1038.2231	214.43082	-1644.2921	-1109.4015	204.1268	-1599.3224	-1063.8198	173.18782	-1625.6708	-1054.2242	262.20743	-1634.979	-1353.0453	234.83299	1003.7642	-1281.3899	227.11588	1052.5219	-1322.9751	193.72203	1021.0656	-1284.7711	287.83401	1052.8674	813.91034	187.68584	1209.4301	892.08295	178.35576	1179.4286	844.31793	145.60123	1198.2313	860.58533	292.75775	1167.4475	1115.6642	209.54393	-1401.6185	1056.1624	194.02139	-1460.3116	1095.077	162.33095	-1423.9171	1069.799	238.73973	-1425.8048	-1204.516	1685.9396	-1563.2247	-1129.1669	1688.2936	-1606.0568	-1173.1879	1724.442	-1581.9783	-1134.068	1580.9818	-1603.9156	-1239.6432	1699.1702	1119.4877	-1309.0692	1698.3171	1071.7506	-1270.4333	1736.3107	1096.881	-1244.6115	1594.031	1106.5415	988.82928	1664.2177	1162.2385	957.50897	1700.4084	1183.7609	922.74084	1662.052	1215.1089	939.76758	1659.4885	1159.8612	998.99866	1668.4547	-1579.4583	1058.7186	1669.9702	-1518.6521	1024.9299	1708.011	-1551.1295	1059.2194	1672.127	-1585.458	-261.35269	164.32979	-221.62715	-346.14676	171.88159	-224.32259	-303.32257	129.07716	-221.77499	-299.62701	169.50002	-191.64499	-297.78378	166.30473	-270.15152																																														-1068.7361	210.01364	-1625.0143	-1073.896	248.66464	-1624.3254	-1321.6671	231.45361	1025.1154	-1320.3236	270.20789	1029.2748	848.11359	183.60359	1196.3032	851.98474	222.36113	1194.337	1088.7666	202.52702	-1428.1504	1082.7505	240.84827	-1432.1862	-1171.8966	1686.9585	-1581.767	-1170.5541	1647.9823	-1581.5472	-1270.7904	1698.7875	1098.0708	-1271.1614	1659.8087	1099.3069	953.23846	1705.3428	1186.6953	973.03033	1733.4369	1168.2561	1026.3768	1669.1495	-1551.582	1027.8279	1630.1792	-1552.0358	-299.84348	167.75778	-222.85068	-296.35107	206.58609	-223.9305
768	6.3916667	-1038.2509	214.4834	-1644.2147	-1109.4408	204.01407	-1599.311	-1063.7804	173.20761	-1625.6692	-1054.2159	262.22507	-1634.9568	-1352.9354	234.94025	1003.6986	-1281.4143	227.13115	1052.5116	-1322.8809	193.77463	1021.0342	-1284.7798	287.83658	1052.9014	813.87396	187.7316	1209.5591	892.10022	178.36534	1179.3802	844.3031	145.6178	1198.1707	860.66034	292.76999	1167.6394	1115.673	209.54306	-1401.6047	1056.1981	194.07042	-1460.3003	1095.1039	162.43042	-1423.9681	1069.7881	238.69736	-1425.8274	-1204.5272	1685.9529	-1563.2219	-1129.1587	1688.3148	-1606.0765	-1173.1956	1724.4408	-1581.972	-1134.0675	1580.9724	-1603.8905	-1239.6516	1699.1892	1119.489	-1309.0781	1698.3273	1071.7528	-1270.4016	1736.2755	1096.8755	-1244.8774	1593.9299	1106.1818	988.90692	1664.2958	1162.2365	957.55853	1700.3378	1183.9005	922.67169	1662.0951	1215.0599	939.77167	1659.4254	1159.967	998.992	1668.4485	-1579.4426	1058.6902	1669.9608	-1518.6659	1024.9343	1708.0138	-1551.1288	1059.2241	1672.1311	-1585.4683	-261.49176	164.49283	-221.55821	-346.60159	172.6768	-224.55316	-303.25946	129.19859	-221.91527	-299.67072	169.50497	-191.70337	-297.80362	166.31143	-270.15408																																														-1068.7531	209.99767	-1624.9751	-1073.976	248.63948	-1624.2461	-1321.5487	231.51324	1025.1198	-1320.1809	270.26285	1029.3147	848.14673	183.62799	1196.337	852.06592	222.3855	1194.4673	1088.7847	202.54799	-1428.1405	1082.7484	240.87128	-1432.1263	-1171.9066	1686.9751	-1581.7699	-1170.5657	1647.9987	-1581.5598	-1270.7721	1698.8029	1098.0911	-1271.1576	1659.8252	1099.3555	953.11053	1705.4517	1186.9742	972.90924	1733.6525	1168.7062	1026.3691	1669.142	-1551.5708	1027.8077	1630.171	-1552.0142	-299.47992	168.14569	-222.89499	-295.71414	206.95117	-223.87112
769	6.4	-1038.2224	214.46869	-1644.3143	-1109.4009	204.10579	-1599.3136	-1063.748	173.22119	-1625.6847	-1054.2284	262.22705	-1634.9612	-1352.9783	234.88858	1003.7355	-1281.3668	227.07031	1052.4734	-1322.8147	193.82509	1020.933	-1284.7479	287.89731	1052.8029	813.93384	187.61154	1209.532	892.33289	178.46313	1179.2371	844.33636	145.55759	1198.2594	860.51178	292.68744	1167.4102	1115.7188	209.83592	-1401.7645	1056.1705	194.05579	-1460.3467	1095.0801	162.36539	-1423.946	1069.8057	238.65988	-1425.7882	-1204.5155	1685.943	-1563.219	-1129.1748	1688.2684	-1606.0492	-1173.1924	1724.4291	-1581.9742	-1134.0684	1580.9791	-1603.8979	-1239.6354	1699.1533	1119.4902	-1309.0685	1698.3073	1071.7532	-1270.4525	1736.33	1096.8926	-1244.627	1593.9847	1106.743	988.87823	1664.249	1162.2626	957.53577	1700.2847	1183.8939	922.80371	1662.0222	1215.0193	939.78082	1659.4409	1159.9564	999.01715	1668.4277	-1579.426	1058.7083	1669.9666	-1518.6589	1024.9376	1708.0212	-1551.1335	1059.2203	1672.1689	-1585.5739	-261.37375	164.36055	-221.59692	-346.13382	172.09981	-224.27167	-303.26886	129.17979	-221.84488	-299.62921	169.52429	-191.68819	-297.80762	166.33215	-270.13889																																														-1068.7023	210.03111	-1625.0442	-1073.9034	248.67686	-1624.3718	-1321.5563	231.45805	1025.1208	-1320.2609	270.19739	1029.4319	848.04211	183.63142	1196.3518	851.81555	222.39983	1194.4097	1088.7124	202.67932	-1428.3325	1082.6626	240.98114	-1432.5002	-1171.9105	1686.9492	-1581.7543	-1170.5775	1647.9727	-1581.5256	-1270.8	1698.7736	1098.0636	-1271.1608	1659.7941	1099.2791	953.16803	1705.3063	1186.9083	972.94409	1733.4971	1168.6	1026.3822	1669.1332	-1551.5675	1027.8298	1630.1625	-1552.0027	-299.7066	167.86064	-222.80656	-296.13126	206.68442	-223.77182
